<?xml version="1.0" encoding="UTF-8" standalone="no"?>
<!-- Created with Inkscape (http://www.inkscape.org/) -->

<svg
   xmlns:dc="http://purl.org/dc/elements/1.1/"
   xmlns:cc="http://creativecommons.org/ns#"
   xmlns:rdf="http://www.w3.org/1999/02/22-rdf-syntax-ns#"
   xmlns:svg="http://www.w3.org/2000/svg"
   xmlns="http://www.w3.org/2000/svg"
   xmlns:sodipodi="http://sodipodi.sourceforge.net/DTD/sodipodi-0.dtd"
   xmlns:inkscape="http://www.inkscape.org/namespaces/inkscape"
   version="1.1"
   id="svg2"
   width="159.44926"
   height="61.351944"
   viewBox="0 0 159.44926 61.351944"
   sodipodi:docname="logo.svg"
   inkscape:version="0.92.4 (5da689c313, 2019-01-14)">
  <metadata
     id="metadata8">
    <rdf:RDF>
      <cc:Work
         rdf:about="">
        <dc:format>image/svg+xml</dc:format>
        <dc:type
           rdf:resource="http://purl.org/dc/dcmitype/StillImage" />
        <dc:title></dc:title>
      </cc:Work>
    </rdf:RDF>
  </metadata>
  <defs
     id="defs6" />
  <sodipodi:namedview
     pagecolor="#ffffff"
     bordercolor="#666666"
     borderopacity="1"
     objecttolerance="10"
     gridtolerance="10"
     guidetolerance="10"
     inkscape:pageopacity="0"
     inkscape:pageshadow="2"
     inkscape:window-width="1920"
     inkscape:window-height="1022"
     id="namedview4"
     showgrid="false"
     inkscape:zoom="5.662188"
     inkscape:cx="72.883691"
     inkscape:cy="72.723513"
     inkscape:window-x="1080"
     inkscape:window-y="271"
     inkscape:window-maximized="1"
     inkscape:current-layer="svg2" />
  <path
     style="fill:none;stroke:#000000;stroke-width:1px;stroke-linecap:butt;stroke-linejoin:miter;stroke-opacity:1"
     d="M 1.4278509,31.27546 22.62107,28.27309 36.22005,14.14427 50.34887,7.6096987 l 9.18373,1.05966 1.7661,-3.35559 12.36271,-3.00238 28.25763,7.41763 14.65864,-1.94271 12.36271,2.4725413 8.83051,-5.1216913 3.53221,-4.06204 1.94271,1.58949 2.64915,-1.41288 3.70881,-0.52983 -1.7661,7.24102 4.41526,12.0094913 6.79949,7.32932 v 1.10382 l -1.89856,1.32457 -2.5167,0.22076 -1.8544,0.79475 -20.97246,-6.53458 -6.31381,2.64916 -1.98687,7.02025 0.35322,0.70644 h 3.62051 l 4.45941,2.73746 0.26491,5.82814 6.18136,4.90093 10.42,13.025 -13.51068,-10.42 -2.82576,-1.32458 0.0883,2.03102 -1.81025,4.94508 -0.35322,-5.2983 -1.58949,-3.62051 -10.3317,-5.60737 -10.68491,1.28042 -5.25416,-6.79949 -20.089403,-5.29831 -3.57636,8.30068 L 64.30107,43.94724 69.1137,59.22402 57.32497,42.3136 v 18.49991 l -6.44627,-25.91754 8.12407,-6.62288 -3.97373,-3.79712 0.39737,-5.82814 -3.00237,1.5895 -5.82814,5.78398 -9.40449,12.23025 -4.76847,1.54534 -18.764835,0.0442 z"
     id="path853"
     inkscape:connector-curvature="0" />
</svg>
